<svg width="91" height="24" viewBox="0 0 91 24" fill="none" xmlns="http://www.w3.org/2000/svg">
<path d="M14.6545 17.6778L2.94914 9.65603C1.76296 8.84316 2.16618 7.15064 3.64533 6.75263L16.086 3.39809C16.3495 3.30362 16.6319 3.27295 16.9098 3.30863C17.1876 3.34432 17.4529 3.44532 17.6836 3.60327C17.9143 3.76121 18.1037 3.97154 18.2362 4.2168C18.3686 4.46205 18.4403 4.73516 18.4453 5.01346L17.708 16.3891C17.6206 17.7394 15.8406 18.4906 14.6545 17.6778Z" fill="#E9327C"/>
<path d="M10.9419 19.6581L4.04598 6.26006C3.88834 5.95356 3.81898 5.60975 3.84553 5.26656C3.87208 4.92337 3.99351 4.59413 4.19644 4.31516C4.39937 4.03618 4.67591 3.8183 4.99556 3.68555C5.31521 3.55279 5.66555 3.51032 6.00796 3.56282L18.7879 5.52239C19.0821 5.56751 19.3613 5.68137 19.6027 5.85461C19.844 6.02785 20.0404 6.25552 20.176 6.5189C20.3114 6.78228 20.3821 7.07384 20.382 7.36962C20.3819 7.6654 20.3112 7.95695 20.1757 8.22028L14.2885 19.6588C14.1304 19.9644 13.8905 20.2208 13.5953 20.3998C13.3 20.5789 12.9609 20.6735 12.615 20.6734C12.2691 20.6734 11.93 20.5786 11.6348 20.3995C11.3396 20.2203 11.0999 19.9638 10.9419 19.6581Z" fill="#1DACE3"/>
<path d="M18.414 5.4646L12.0433 4.48773L4.22153 6.59769L7.34359 12.6657L14.6545 17.6777C14.8158 17.7871 14.9932 17.8708 15.1804 17.926L17.9573 12.5309L18.414 5.4646Z" fill="#001A49"/>
<path d="M50.6832 7.03073C50.6832 6.79547 50.7534 6.5655 50.885 6.36989C51.0166 6.17428 51.2036 6.02182 51.4223 5.93179C51.6411 5.84176 51.8818 5.81821 52.1141 5.8641C52.3463 5.91 52.5597 6.02329 52.7271 6.18964C52.8946 6.35599 53.0086 6.56794 53.0548 6.79868C53.101 7.02942 53.0773 7.26858 52.9866 7.48593C52.896 7.70328 52.7426 7.88905 52.5457 8.01976C52.3488 8.15046 52.1173 8.22022 51.8805 8.22022C51.5639 8.21702 51.2613 8.09066 51.0375 7.86829C50.8137 7.6459 50.6864 7.34521 50.6832 7.03073ZM50.8829 8.80166H52.8788V15.4096H50.8829V8.80166Z" fill="#001A49"/>
<path d="M61.4978 12.1057C61.521 12.5424 61.457 12.9795 61.3096 13.3916C61.1622 13.8037 60.9342 14.1828 60.6388 14.5071C60.3434 14.8314 59.9864 15.0944 59.5882 15.2812C59.1901 15.4679 58.7587 15.5746 58.319 15.595C57.9491 15.615 57.5793 15.553 57.2365 15.4136C56.8937 15.2741 56.5863 15.0606 56.3368 14.7886V18.0531H54.3415V8.80168H56.3368V9.42267C56.5864 9.15074 56.8937 8.93741 57.2366 8.79805C57.5794 8.65871 57.9492 8.59683 58.319 8.61692C58.7587 8.63733 59.19 8.74393 59.5882 8.93054C59.9863 9.11723 60.3433 9.38021 60.6388 9.70445C60.9342 10.0287 61.1622 10.4077 61.3096 10.8198C61.457 11.2319 61.521 11.6689 61.4978 12.1057ZM59.5026 12.1057C59.4947 11.7963 59.3952 11.4961 59.2165 11.2426C59.0378 10.9891 58.7878 10.7936 58.4978 10.6806C58.2078 10.5676 57.8907 10.5421 57.5862 10.6072C57.2817 10.6724 57.0032 10.8253 56.7857 11.0469C56.5683 11.2684 56.4214 11.5488 56.3635 11.8529C56.3057 12.157 56.3394 12.4713 56.4604 12.7565C56.5814 13.0416 56.7844 13.285 57.044 13.4561C57.3036 13.6272 57.6082 13.7184 57.9197 13.7184C58.1336 13.728 58.3471 13.6925 58.5462 13.6143C58.7454 13.5361 58.9256 13.4169 59.0751 13.2646C59.2245 13.1123 59.3399 12.9303 59.4136 12.7305C59.4873 12.5308 59.5176 12.3178 59.5026 12.1057Z" fill="#001A49"/>
<path d="M67.6566 13.4261C67.6566 14.9462 66.3262 15.5938 64.8896 15.5938C64.3092 15.646 63.7263 15.5239 63.2165 15.2434C62.7067 14.963 62.2933 14.537 62.0298 14.0205L63.7588 13.043C63.8292 13.2818 63.9798 13.4893 64.1856 13.6308C64.3914 13.7724 64.6399 13.8395 64.8896 13.8209C65.3685 13.8209 65.6073 13.675 65.6073 13.4112C65.6073 12.6839 62.3351 13.0677 62.3351 10.7807C62.3351 9.34038 63.5585 8.61373 64.945 8.61373C65.4651 8.59751 65.98 8.72011 66.4358 8.96876C66.8926 9.21742 67.273 9.58301 67.5385 10.0275L65.8363 10.9395C65.7618 10.7661 65.6376 10.6182 65.4791 10.5145C65.3206 10.4107 65.1348 10.3557 64.945 10.3561C64.5992 10.3561 64.3865 10.4858 64.3865 10.7263C64.3845 11.4847 67.6566 10.9823 67.6566 13.4261Z" fill="#001A49"/>
<path d="M74.9493 8.8017V15.4097H72.954V14.7874C72.7237 15.0615 72.4307 15.2775 72.0999 15.4177C71.7698 15.5578 71.4103 15.6182 71.0514 15.5938C69.708 15.5938 68.5642 14.6422 68.5642 12.8576V8.8017H70.5595V12.5685C70.5425 12.726 70.5608 12.8853 70.6123 13.0352C70.6639 13.185 70.7474 13.322 70.8576 13.4365C70.9679 13.551 71.1017 13.6402 71.2498 13.6979C71.3985 13.7557 71.5577 13.7806 71.7169 13.771C72.4484 13.771 72.9566 13.3483 72.9566 12.4097V8.8017H74.9493Z" fill="#001A49"/>
<path d="M86.3857 11.3518V15.4096H84.3904V11.5242C84.3904 10.8636 84.0707 10.4404 83.4326 10.4404C82.7671 10.4404 82.3952 10.9032 82.3952 11.683V15.4096H80.3993V11.5242C80.3993 10.8636 80.0802 10.4404 79.4414 10.4404C78.7766 10.4404 78.404 10.9032 78.404 11.683V15.4096H76.4088V8.80165H78.4073V9.40709C78.6141 9.13749 78.8855 8.92371 79.1968 8.78518C79.508 8.64672 79.8499 8.58797 80.1898 8.61432C80.5311 8.59773 80.8716 8.66932 81.177 8.82213C81.4824 8.97492 81.7427 9.20367 81.9326 9.48617C82.1537 9.19065 82.4467 8.9556 82.784 8.80314C83.1214 8.65064 83.4926 8.58569 83.8619 8.61432C85.3887 8.61691 86.3857 9.70008 86.3857 11.3518Z" fill="#001A49"/>
<path d="M88.0763 8.76079C88.8945 8.76079 89.5574 8.102 89.5574 7.28933C89.5574 6.47667 88.8945 5.81787 88.0763 5.81787C87.2581 5.81787 86.5952 6.47667 86.5952 7.28933C86.5952 8.102 87.2581 8.76079 88.0763 8.76079Z" fill="#001A49"/>
<path d="M23.4414 5.76215H25.4373V15.4097H23.4414V5.76215ZM26.5674 12.1057C26.5652 11.4129 26.7699 10.735 27.1558 10.158C27.5416 9.58085 28.0911 9.13047 28.7347 8.86385C29.3783 8.59723 30.087 8.52633 30.7713 8.66015C31.4555 8.79397 32.0843 9.12645 32.5782 9.6156C33.072 10.1047 33.4087 10.7283 33.5455 11.4077C33.6823 12.087 33.6132 12.7914 33.3469 13.4316C33.0806 14.0719 32.629 14.6192 32.0493 15.0043C31.4697 15.3894 30.7881 15.595 30.0907 15.595C29.6276 15.5999 29.1681 15.5131 28.7391 15.3397C28.3102 15.1662 27.9203 14.9095 27.5923 14.5847C27.2642 14.2598 27.0046 13.8732 26.8287 13.4476C26.6527 13.022 26.5639 12.5658 26.5674 12.1057ZM31.6227 12.1057C31.6149 11.8068 31.5186 11.5169 31.3457 11.2722C31.1729 11.0275 30.9313 10.8388 30.6512 10.7298C30.3709 10.6208 30.0647 10.5962 29.7705 10.6593C29.4764 10.7223 29.2075 10.8702 28.9975 11.0842C28.7875 11.2983 28.6457 11.5691 28.5898 11.8628C28.5339 12.1566 28.5664 12.4602 28.6833 12.7357C28.8002 13.0111 28.9962 13.2462 29.2469 13.4116C29.4976 13.5769 29.7918 13.6652 30.0927 13.6653C30.2987 13.6711 30.5038 13.6344 30.6948 13.5576C30.8859 13.4809 31.0589 13.3656 31.2029 13.219C31.3469 13.0725 31.4588 12.8979 31.5315 12.7063C31.6042 12.5146 31.6361 12.3101 31.6253 12.1057H31.6227ZM41.5722 8.79974V15.0778C41.5722 17.2979 39.8295 18.2359 38.0606 18.2359C37.438 18.2826 36.8145 18.1581 36.2583 17.8759C35.7022 17.5939 35.235 17.1651 34.9079 16.6367L36.6102 15.6586C36.7476 15.9343 36.9665 16.1619 37.2376 16.3108C37.5087 16.4596 37.819 16.5227 38.1272 16.4915C38.3239 16.5182 38.5241 16.5007 38.713 16.4402C38.902 16.3797 39.0748 16.278 39.2189 16.1422C39.3629 16.0065 39.4744 15.8405 39.5452 15.6562C39.616 15.472 39.6442 15.2742 39.6278 15.0778V14.4697C39.3941 14.7537 39.0967 14.9792 38.7594 15.1284C38.4221 15.2775 38.0543 15.3461 37.6854 15.3286C36.8075 15.3015 35.9747 14.9359 35.3633 14.3094C34.7519 13.6828 34.41 12.8445 34.41 11.9718C34.41 11.0991 34.7519 10.2608 35.3633 9.6342C35.9747 9.00763 36.8075 8.64208 37.6854 8.61497C38.0543 8.59744 38.4221 8.666 38.7594 8.81517C39.0967 8.96433 39.3941 9.18991 39.6278 9.47389V8.79974H41.5722ZM39.6305 11.9715C39.6436 11.6523 39.5604 11.3366 39.3915 11.0648C39.2225 10.793 38.9756 10.5776 38.6825 10.4463C38.3894 10.315 38.0634 10.2739 37.7466 10.3281C37.4297 10.3824 37.1365 10.5295 36.9044 10.7507C36.6724 10.9719 36.5123 11.2569 36.4447 11.5691C36.377 11.8815 36.405 12.2067 36.5249 12.5031C36.6448 12.7995 36.8512 13.0534 37.1175 13.2323C37.3839 13.4113 37.698 13.5069 38.0195 13.5071C38.2291 13.5217 38.4396 13.4926 38.6372 13.4216C38.8348 13.3506 39.0153 13.2393 39.1671 13.0949C39.3188 12.9504 39.4384 12.776 39.5182 12.5829C39.598 12.3897 39.6363 12.1821 39.6305 11.9734V11.9715ZM42.7023 12.1011C42.7001 11.4083 42.9049 10.7305 43.2907 10.1534C43.6765 9.57631 44.226 9.12593 44.8696 8.85932C45.5133 8.59269 46.222 8.52179 46.9062 8.65561C47.5904 8.78944 48.2192 9.12191 48.7131 9.61106C49.2069 10.1001 49.5436 10.7238 49.6804 11.4031C49.8173 12.0825 49.7482 12.7868 49.4818 13.4271C49.2155 14.0673 48.7639 14.6147 48.1843 14.9998C47.6046 15.3849 46.923 15.5905 46.2256 15.5905C45.7629 15.5954 45.3038 15.5087 44.8751 15.3355C44.4465 15.1624 44.0567 14.9061 43.7288 14.5817C43.4008 14.2573 43.1412 13.8714 42.965 13.4462C42.7887 13.0211 42.6994 12.5654 42.7023 12.1057V12.1011ZM47.7576 12.1011C47.7499 11.8021 47.6536 11.512 47.4808 11.267C47.308 11.0221 47.0663 10.8333 46.786 10.7241C46.5056 10.615 46.1991 10.5904 45.9048 10.6535C45.6105 10.7165 45.3414 10.8644 45.1313 11.0786C44.9211 11.2928 44.7792 11.5638 44.7234 11.8577C44.6675 12.1516 44.7001 12.4555 44.8171 12.731C44.9341 13.0066 45.1303 13.2418 45.3812 13.4072C45.6321 13.5726 45.9265 13.6608 46.2276 13.6608C46.433 13.6661 46.6373 13.6294 46.8278 13.5527C47.0182 13.476 47.1907 13.361 47.3344 13.215C47.478 13.0691 47.5897 12.8951 47.6626 12.7042C47.7354 12.5133 47.7678 12.3095 47.7576 12.1057V12.1011Z" fill="#001A49"/>
</svg>
