<svg width="91" height="24" viewBox="0 0 91 24" fill="none" xmlns="http://www.w3.org/2000/svg">
<g clip-path="url(#clip0_10_539)">
<path d="M6.98709 17.1053C5.2524 18.8287 2.31449 18.8218 1.49401 16.5249C1.33337 16.0752 1.20493 15.6128 1.11047 15.141C0.724774 13.2146 0.922727 11.2178 1.6793 9.40317C2.43587 7.58857 3.71707 6.03758 5.3609 4.94636C7.00475 3.85514 8.93737 3.2727 10.9144 3.27271C12.8914 3.27271 14.824 3.85514 16.4678 4.94636C18.1117 6.03758 19.3929 7.58857 20.1494 9.40323C20.906 11.2178 21.1039 13.2146 20.7183 15.141C20.6238 15.6128 20.4954 16.0752 20.3347 16.5249C19.5142 18.8218 16.5763 18.8287 14.8416 17.1053L12.1639 14.4449C11.908 14.1908 11.9345 13.7716 12.005 13.4191C12.0479 13.2048 12.0259 12.9827 11.9417 12.7808C11.8575 12.5789 11.715 12.4064 11.5322 12.285C11.3493 12.1636 11.1343 12.0988 10.9144 12.0988C10.6944 12.0988 10.4795 12.1636 10.2966 12.285C10.1137 12.4064 9.97116 12.5789 9.88698 12.7808C9.80281 12.9827 9.78079 13.2048 9.82372 13.4191C9.8943 13.7716 9.92068 14.1908 9.66484 14.4449L6.98709 17.1053Z" fill="url(#paint0_linear_10_539)"/>
<path d="M29.0428 14.721H31.7297V16.2941H26.9916V7.92828H29.0428V14.721Z" fill="#3A3B7B"/>
<path d="M35.395 16.3895C34.7393 16.3895 34.1475 16.2504 33.6197 15.9724C33.1 15.6943 32.6881 15.2971 32.3842 14.7807C32.0884 14.2643 31.9404 13.6605 31.9404 12.9692C31.9404 12.286 32.0923 11.6862 32.3962 11.1698C32.7001 10.6454 33.1159 10.2442 33.6437 9.96616C34.1715 9.6881 34.7633 9.54907 35.419 9.54907C36.0747 9.54907 36.6665 9.6881 37.1943 9.96616C37.7221 10.2442 38.1379 10.6454 38.4418 11.1698C38.7456 11.6862 38.8976 12.286 38.8976 12.9692C38.8976 13.6525 38.7416 14.2563 38.4298 14.7807C38.1259 15.2971 37.7061 15.6943 37.1703 15.9724C36.6425 16.2504 36.0507 16.3895 35.395 16.3895ZM35.395 14.6257C35.7868 14.6257 36.1187 14.4828 36.3906 14.1967C36.6705 13.9107 36.8104 13.5016 36.8104 12.9692C36.8104 12.437 36.6745 12.0278 36.4026 11.7418C36.1387 11.4558 35.8108 11.3128 35.419 11.3128C35.0192 11.3128 34.6873 11.4558 34.4234 11.7418C34.1595 12.0199 34.0275 12.429 34.0275 12.9692C34.0275 13.5016 34.1555 13.9107 34.4114 14.1967C34.6753 14.4828 35.0032 14.6257 35.395 14.6257Z" fill="#3A3B7B"/>
<path d="M42.1689 9.54907C42.6407 9.54907 43.0526 9.64441 43.4044 9.8351C43.7642 10.0257 44.0402 10.276 44.2321 10.5858V9.64441H46.2832V16.2822C46.2832 16.8939 46.1593 17.4461 45.9114 17.9386C45.6715 18.4392 45.2996 18.8364 44.7959 19.1303C44.3001 19.4243 43.6803 19.5713 42.9366 19.5713C41.945 19.5713 41.1413 19.337 40.5256 18.8682C39.9099 18.4074 39.5579 17.7798 39.47 16.9853H41.4972C41.5611 17.2395 41.7131 17.4382 41.953 17.5812C42.1929 17.7321 42.4888 17.8076 42.8407 17.8076C43.2645 17.8076 43.6003 17.6844 43.8482 17.4382C44.1041 17.1998 44.2321 16.8145 44.2321 16.2822V15.3408C44.0322 15.6506 43.7563 15.9048 43.4044 16.1034C43.0526 16.2941 42.6407 16.3895 42.1689 16.3895C41.6171 16.3895 41.1173 16.2504 40.6695 15.9724C40.2217 15.6863 39.8658 15.2851 39.602 14.7687C39.3461 14.2444 39.2181 13.6406 39.2181 12.9573C39.2181 12.2741 39.3461 11.6743 39.602 11.1579C39.8658 10.6415 40.2217 10.2442 40.6695 9.96616C41.1173 9.6881 41.6171 9.54907 42.1689 9.54907ZM44.2321 12.9692C44.2321 12.4608 44.0882 12.0596 43.8003 11.7656C43.5204 11.4717 43.1765 11.3247 42.7687 11.3247C42.3608 11.3247 42.013 11.4717 41.7251 11.7656C41.4452 12.0517 41.3053 12.4489 41.3053 12.9573C41.3053 13.4658 41.4452 13.871 41.7251 14.1729C42.013 14.4668 42.3608 14.6138 42.7687 14.6138C43.1765 14.6138 43.5204 14.4668 43.8003 14.1729C44.0882 13.8789 44.2321 13.4777 44.2321 12.9692Z" fill="#3A3B7B"/>
<path d="M50.4541 16.3895C49.7983 16.3895 49.2066 16.2504 48.6788 15.9724C48.159 15.6943 47.7471 15.2971 47.4433 14.7807C47.1474 14.2643 46.9995 13.6605 46.9995 12.9692C46.9995 12.286 47.1514 11.6862 47.4553 11.1698C47.7592 10.6454 48.175 10.2442 48.7027 9.96616C49.2305 9.6881 49.8223 9.54907 50.478 9.54907C51.1338 9.54907 51.7256 9.6881 52.2533 9.96616C52.7811 10.2442 53.1969 10.6454 53.5008 11.1698C53.8047 11.6862 53.9566 12.286 53.9566 12.9692C53.9566 13.6525 53.8007 14.2563 53.4888 14.7807C53.185 15.2971 52.7651 15.6943 52.2293 15.9724C51.7016 16.2504 51.1098 16.3895 50.4541 16.3895ZM50.4541 14.6257C50.8459 14.6257 51.1778 14.4828 51.4497 14.1967C51.7296 13.9107 51.8695 13.5016 51.8695 12.9692C51.8695 12.437 51.7335 12.0278 51.4616 11.7418C51.1977 11.4558 50.8699 11.3128 50.478 11.3128C50.0782 11.3128 49.7463 11.4558 49.4824 11.7418C49.2186 12.0199 49.0866 12.429 49.0866 12.9692C49.0866 13.5016 49.2146 13.9107 49.4705 14.1967C49.7344 14.4828 50.0622 14.6257 50.4541 14.6257Z" fill="#3A3B7B"/>
<path d="M55.7165 8.95319C55.3566 8.95319 55.0608 8.84991 54.8289 8.64335C54.605 8.42884 54.493 8.16667 54.493 7.85683C54.493 7.53904 54.605 7.27686 54.8289 7.07029C55.0608 6.85579 55.3566 6.74854 55.7165 6.74854C56.0684 6.74854 56.3563 6.85579 56.5802 7.07029C56.8121 7.27686 56.928 7.53904 56.928 7.85683C56.928 8.16667 56.8121 8.42884 56.5802 8.64335C56.3563 8.84991 56.0684 8.95319 55.7165 8.95319ZM56.7361 9.64439V16.2941H54.6849V9.64439H56.7361Z" fill="#3A3B7B"/>
<path d="M59.9137 10.5858C60.1135 10.276 60.3895 10.0257 60.7415 9.8351C61.0935 9.64441 61.5054 9.54907 61.9771 9.54907C62.529 9.54907 63.0285 9.6881 63.4764 9.96616C63.9243 10.2442 64.2763 10.6415 64.5319 11.1579C64.7957 11.6743 64.9281 12.2741 64.9281 12.9573C64.9281 13.6406 64.7957 14.2444 64.5319 14.7687C64.2763 15.2851 63.9243 15.6863 63.4764 15.9724C63.0285 16.2504 62.529 16.3895 61.9771 16.3895C61.513 16.3895 61.1017 16.2941 60.7415 16.1034C60.3895 15.9128 60.1135 15.6665 59.9137 15.3646V19.464H57.8627V9.64441H59.9137V10.5858ZM62.8409 12.9573C62.8409 12.4489 62.6968 12.0517 62.4087 11.7656C62.1287 11.4717 61.7813 11.3247 61.3654 11.3247C60.9576 11.3247 60.6096 11.4717 60.3215 11.7656C60.0421 12.0596 59.9021 12.4608 59.9021 12.9692C59.9021 13.4777 60.0421 13.8789 60.3215 14.1729C60.6096 14.4668 60.9576 14.6138 61.3654 14.6138C61.7732 14.6138 62.1212 14.4668 62.4087 14.1729C62.6968 13.871 62.8409 13.4658 62.8409 12.9573Z" fill="#3A3B7B"/>
<path d="M68.3671 16.3895C67.7833 16.3895 67.2634 16.2901 66.8074 16.0915C66.352 15.8929 65.9918 15.6228 65.7281 15.2811C65.4643 14.9316 65.3162 14.5423 65.2842 14.1133H67.3116C67.3354 14.3437 67.4435 14.5304 67.6352 14.6734C67.8275 14.8164 68.0633 14.8879 68.3433 14.8879C68.5989 14.8879 68.7947 14.8402 68.9306 14.7449C69.0747 14.6416 69.1467 14.5105 69.1467 14.3516C69.1467 14.1609 69.0468 14.0219 68.8469 13.9345C68.6471 13.8392 68.323 13.7359 67.8751 13.6247C67.3953 13.5135 66.9956 13.3983 66.6755 13.2791C66.356 13.152 66.0801 12.9573 65.8483 12.6952C65.6159 12.4251 65.5003 12.0636 65.5003 11.6107C65.5003 11.2294 65.6043 10.8838 65.8123 10.5739C66.0278 10.2562 66.3397 10.0059 66.7475 9.82315C67.1635 9.64043 67.6555 9.54907 68.2231 9.54907C69.0625 9.54907 69.7224 9.75563 70.2022 10.1687C70.6902 10.5819 70.9702 11.1301 71.0422 11.8133H69.1467C69.1147 11.5829 69.0108 11.4002 68.8348 11.2651C68.6669 11.1301 68.4432 11.0625 68.1632 11.0625C67.9233 11.0625 67.7392 11.1102 67.6114 11.2055C67.4836 11.2929 67.4197 11.4161 67.4197 11.575C67.4197 11.7656 67.5196 11.9087 67.7194 12.004C67.9274 12.0993 68.2469 12.1947 68.6791 12.29C69.1746 12.4171 69.5783 12.5442 69.8903 12.6713C70.2022 12.7905 70.4741 12.9891 70.7059 13.2672C70.9458 13.5373 71.0701 13.9027 71.0782 14.3636C71.0782 14.7528 70.9661 15.1024 70.7419 15.4123C70.5264 15.7142 70.2103 15.9525 69.7944 16.1273C69.3866 16.3021 68.9109 16.3895 68.3671 16.3895Z" fill="#3A3B7B"/>
<path d="M78.5824 9.64435V16.2941H76.5312V15.3884C76.3232 15.6823 76.0392 15.9207 75.6796 16.1034C75.3276 16.2782 74.936 16.3656 74.5038 16.3656C73.992 16.3656 73.5401 16.2543 73.1486 16.0319C72.7564 15.8015 72.4526 15.4718 72.2371 15.0428C72.021 14.6138 71.913 14.1093 71.913 13.5293V9.64435H73.952V13.2552C73.952 13.7001 74.0681 14.0457 74.2999 14.292C74.5317 14.5383 74.8436 14.6614 75.2358 14.6614C75.6354 14.6614 75.9514 14.5383 76.1832 14.292C76.415 14.0457 76.5312 13.7001 76.5312 13.2552V9.64435H78.5824Z" fill="#3A3B7B"/>
<path d="M88.2364 9.57281C89.0677 9.57281 89.7276 9.82306 90.2156 10.3236C90.7111 10.8241 90.9592 11.5192 90.9592 12.409V16.294H88.9202V12.6832C88.9202 12.2541 88.804 11.9244 88.5722 11.694C88.348 11.4557 88.0366 11.3365 87.6364 11.3365C87.2367 11.3365 86.9207 11.4557 86.6889 11.694C86.4653 11.9244 86.3531 12.2541 86.3531 12.6832V16.294H84.3136V12.6832C84.3136 12.2541 84.198 11.9244 83.9662 11.694C83.742 11.4557 83.43 11.3365 83.0303 11.3365C82.6307 11.3365 82.3147 11.4557 82.0829 11.694C81.8587 11.9244 81.7471 12.2541 81.7471 12.6832V16.294H79.6959V9.64432H81.7471V10.4785C81.9551 10.2004 82.2269 9.98194 82.5627 9.82306C82.8985 9.65621 83.2784 9.57281 83.7019 9.57281C84.2061 9.57281 84.654 9.68004 85.0455 9.89456C85.4452 10.1091 85.7571 10.415 85.9814 10.8122C86.2131 10.4467 86.5292 10.1488 86.9288 9.9184C87.3285 9.68801 87.7647 9.57281 88.2364 9.57281Z" fill="#3A3B7B"/>
</g>
<defs>
<linearGradient id="paint0_linear_10_539" x1="20.0004" y1="8.23815" x2="2.2576" y2="8.23815" gradientUnits="userSpaceOnUse">
<stop stop-color="#64C2DB"/>
<stop offset="0.510417" stop-color="#7476ED"/>
<stop offset="1" stop-color="#E56F8C"/>
</linearGradient>
<clipPath id="clip0_10_539">
<rect width="90.0408" height="24" fill="white" transform="translate(0.918365)"/>
</clipPath>
</defs>
</svg>
