<svg width="91" height="24" viewBox="0 0 91 24" fill="none" xmlns="http://www.w3.org/2000/svg">
<g clip-path="url(#clip0_10_580)">
<path d="M26.3017 16.7152H32.7458V14.7869H28.5921V7.52338H26.3017V16.7152Z" fill="#2F234F"/>
<path d="M36.5638 15.4296C35.6451 15.4296 35.1663 14.6326 35.1663 13.437C35.1663 12.2414 35.6451 11.4315 36.5638 11.4315C37.4825 11.4315 37.9743 12.2414 37.9743 13.437C37.9743 14.6326 37.4825 15.4296 36.5638 15.4296ZM36.5767 16.9209C38.7118 16.9209 40.1094 15.4168 40.1094 13.437C40.1094 11.4572 38.7118 9.95306 36.5767 9.95306C34.4546 9.95306 33.0312 11.4572 33.0312 13.437C33.0312 15.4168 34.4546 16.9209 36.5767 16.9209Z" fill="#2F234F"/>
<path d="M43.805 18.9908C44.7885 18.9908 45.6554 18.7722 46.2377 18.258C46.7683 17.7823 47.1177 17.0624 47.1177 16.0725V10.1331H45.099V10.8402H45.0731C44.6849 10.2874 44.0897 9.94031 43.2098 9.94031C41.5664 9.94031 40.4277 11.303 40.4277 13.2314C40.4277 15.2497 41.8123 16.3553 43.3004 16.3553C44.1026 16.3553 44.6073 16.0339 44.9955 15.5968H45.0473V16.2525C45.0473 17.0495 44.672 17.5123 43.7791 17.5123C43.0804 17.5123 42.731 17.2167 42.6145 16.8696H40.57C40.7771 18.2451 41.9805 18.9908 43.805 18.9908ZM43.7921 14.7998C43.0027 14.7998 42.4851 14.157 42.4851 13.1671C42.4851 12.1644 43.0027 11.5216 43.7921 11.5216C44.672 11.5216 45.1378 12.2672 45.1378 13.1542C45.1378 14.0799 44.7108 14.7998 43.7921 14.7998Z" fill="#2F234F"/>
<path d="M51.2683 15.4296C50.3495 15.4296 49.8708 14.6326 49.8708 13.437C49.8708 12.2414 50.3495 11.4315 51.2683 11.4315C52.187 11.4315 52.6787 12.2414 52.6787 13.437C52.6787 14.6326 52.187 15.4296 51.2683 15.4296ZM51.2812 16.9209C53.4163 16.9209 54.814 15.4168 54.814 13.437C54.814 11.4572 53.4163 9.95306 51.2812 9.95306C49.1591 9.95306 47.7357 11.4572 47.7357 13.437C47.7357 15.4168 49.1591 16.9209 51.2812 16.9209Z" fill="#2F234F"/>
<path d="M55.4298 16.7152H57.539V10.1331H55.4298V16.7152ZM55.4298 9.22033H57.539V7.52338H55.4298V9.22033Z" fill="#2F234F"/>
<path d="M58.454 18.8879H60.5632V16.0339H60.5891C61.0032 16.5867 61.6113 16.921 62.4654 16.921C64.1993 16.921 65.351 15.5583 65.351 13.4242C65.351 11.4444 64.277 9.94031 62.5171 9.94031C61.6113 9.94031 60.9643 10.3388 60.5114 10.9302H60.4726V10.1331H58.454V18.8879ZM61.9219 15.3012C61.0161 15.3012 60.4985 14.5684 60.4985 13.5013C60.4985 12.4343 60.9643 11.6244 61.8831 11.6244C62.7889 11.6244 63.2159 12.37 63.2159 13.5013C63.2159 14.6198 62.7242 15.3012 61.9219 15.3012Z" fill="#2F234F"/>
<path d="M68.7855 16.921C70.5194 16.921 71.8005 16.1753 71.8005 14.7355C71.8005 13.0514 70.4289 12.7557 69.2643 12.5629C68.4232 12.4086 67.6726 12.3443 67.6726 11.8815C67.6726 11.4701 68.0738 11.2773 68.5914 11.2773C69.1737 11.2773 69.5748 11.4573 69.6525 12.0486H71.5935C71.4899 10.7502 70.4806 9.94031 68.6043 9.94031C67.0386 9.94031 65.7446 10.6602 65.7446 12.0486C65.7446 13.5913 66.9739 13.8999 68.1255 14.0927C69.0055 14.247 69.8077 14.3113 69.8077 14.9026C69.8077 15.3269 69.4066 15.5583 68.7725 15.5583C68.0738 15.5583 67.6338 15.2369 67.5562 14.5812H65.5634C65.6281 16.0339 66.8445 16.921 68.7855 16.921Z" fill="#2F234F"/>
<path d="M74.6651 16.9081C75.5839 16.9081 76.1662 16.5481 76.645 15.9053H76.6838V16.7153H78.7024V10.1331H76.5932V13.8099C76.5932 14.5941 76.1532 15.134 75.4286 15.134C74.7557 15.134 74.4322 14.7355 74.4322 14.0156V10.1331H72.3359V14.4526C72.3359 15.9182 73.1382 16.9081 74.6651 16.9081Z" fill="#2F234F"/>
<path d="M79.6201 16.7153H81.7293V13.0257C81.7293 12.2415 82.1175 11.6887 82.7774 11.6887C83.4115 11.6887 83.7091 12.1001 83.7091 12.8071V16.7153H85.8183V13.0257C85.8183 12.2415 86.1936 11.6887 86.8665 11.6887C87.5005 11.6887 87.7981 12.1001 87.7981 12.8071V16.7153H89.9074V12.4343C89.9074 10.9559 89.1568 9.94031 87.6558 9.94031C86.8018 9.94031 86.0901 10.3003 85.5725 11.0973H85.5466C85.2101 10.3903 84.5502 9.94031 83.6832 9.94031C82.7257 9.94031 82.0916 10.3903 81.6775 11.0716H81.6387V10.1331H79.6201V16.7153Z" fill="#2F234F"/>
<path fill-rule="evenodd" clip-rule="evenodd" d="M4.7477 3.37625C3.97633 3.9121 3.27881 4.54565 2.6733 5.25883C5.1477 5.03061 8.29133 5.40327 11.9411 7.21627C15.8385 9.15224 18.9769 9.21769 21.161 8.79913C20.9628 8.203 20.7133 7.63006 20.4178 7.08541C17.9175 7.3474 14.7122 7.00061 10.9766 5.14505C8.60448 3.96671 6.51348 3.48132 4.7477 3.37625ZM18.9572 5.02006C16.9827 2.82835 14.1134 1.44904 10.9197 1.44904C9.98178 1.44904 9.07178 1.56801 8.20426 1.79158C9.37921 2.11008 10.6274 2.57605 11.9411 3.22863C14.676 4.58719 17.0373 5.02462 18.9572 5.02006ZM21.628 10.8916C18.9893 11.4093 15.3456 11.3029 10.9766 9.13269C6.89209 7.10373 3.64117 7.12928 1.44863 7.61335C1.33546 7.63831 1.22495 7.66456 1.11711 7.69188C0.830055 8.31211 0.600917 8.96433 0.436508 9.64161C0.612105 9.59501 0.793559 9.55071 0.980774 9.50936C3.6407 8.92212 7.39896 8.94762 11.9411 11.2039C16.0256 13.2329 19.2765 13.2073 21.4691 12.7232C21.5442 12.7067 21.6182 12.6895 21.691 12.6719C21.699 12.503 21.703 12.333 21.703 12.1621C21.703 11.7323 21.6775 11.3083 21.628 10.8916ZM21.3389 14.9327C18.7259 15.3866 15.1882 15.2124 10.9766 13.1203C6.89209 11.0914 3.64117 11.1169 1.44863 11.601C0.961951 11.7084 0.524142 11.8392 0.137932 11.9774C0.136879 12.0388 0.136353 12.1004 0.136353 12.1621C0.136353 18.0788 4.96421 22.8753 10.9197 22.8753C15.9108 22.8753 20.1099 19.5065 21.3389 14.9327Z" fill="#7F57F1"/>
</g>
<defs>
<clipPath id="clip0_10_580">
<rect width="90.0408" height="24" fill="white" transform="translate(0.081604)"/>
</clipPath>
</defs>
</svg>
