<svg width="91" height="24" viewBox="0 0 91 24" fill="none" xmlns="http://www.w3.org/2000/svg">
<g clip-path="url(#clip0_10_567)">
<path d="M14.1288 15.8182H18.7077L7.36484 4.36365H2.78589L14.1288 15.8182Z" fill="#7476ED"/>
<path d="M9.37427 4.36365L20.9039 15.2727V4.36365H17.7838V7.80785L14.1436 4.36365L9.37427 4.36365Z" fill="#E56F8C"/>
<path d="M0.589844 4.90912V15.8182H3.55357V12.383L7.01121 15.8182H11.5704L0.589844 4.90912Z" fill="#64C2DB"/>
<path d="M27.9844 14.1771H30.7865V15.8182H25.8452V7.09088H27.9844V14.1771Z" fill="#3A3B7B"/>
<path d="M34.3306 15.8182C33.6579 15.8182 33.0507 15.6741 32.5093 15.3858C31.976 15.0976 31.5536 14.6858 31.2418 14.1505C30.9383 13.6151 30.7865 12.9892 30.7865 12.2727C30.7865 11.5645 30.9423 10.9427 31.2541 10.4074C31.5659 9.86379 31.9925 9.44791 32.5339 9.15966C33.0754 8.87142 33.6825 8.72729 34.3552 8.72729C35.0279 8.72729 35.635 8.87142 36.1765 9.15966C36.7179 9.44791 37.1445 9.86379 37.4563 10.4074C37.7681 10.9427 37.9239 11.5645 37.9239 12.2727C37.9239 12.981 37.7639 13.6069 37.4439 14.1505C37.1322 14.6858 36.7015 15.0976 36.1518 15.3858C35.6104 15.6741 35.0033 15.8182 34.3306 15.8182ZM34.3306 13.9899C34.7326 13.9899 35.0731 13.8416 35.352 13.5451C35.6391 13.2487 35.7827 12.8246 35.7827 12.2727C35.7827 11.7209 35.6432 11.2968 35.3643 11.0003C35.0935 10.7039 34.7572 10.5556 34.3552 10.5556C33.945 10.5556 33.6045 10.7039 33.3338 11.0003C33.0631 11.2886 32.9277 11.7127 32.9277 12.2727C32.9277 12.8246 33.059 13.2487 33.3215 13.5451C33.5922 13.8416 33.9286 13.9899 34.3306 13.9899Z" fill="#3A3B7B"/>
<path d="M40.9048 8.72729C41.3814 8.72729 41.7975 8.82588 42.1529 9.02305C42.5165 9.22022 42.7952 9.47901 42.9891 9.79939V8.82588H45.0612V15.6898C45.0612 16.3224 44.936 16.8933 44.6855 17.4026C44.4432 17.9202 44.0675 18.331 43.5586 18.635C43.0577 18.9389 42.4316 19.0909 41.6804 19.0909C40.6786 19.0909 39.8667 18.8485 39.2447 18.3638C38.6226 17.8874 38.2672 17.2384 38.1783 16.4168H40.2262C40.2908 16.6797 40.4443 16.8851 40.6867 17.033C40.9291 17.1891 41.2279 17.2671 41.5834 17.2671C42.0116 17.2671 42.3508 17.1398 42.6013 16.8851C42.8598 16.6386 42.9891 16.2402 42.9891 15.6898V14.7163C42.7871 15.0366 42.5084 15.2995 42.1529 15.5049C41.7975 15.7021 41.3814 15.8007 40.9048 15.8007C40.3474 15.8007 39.8425 15.6569 39.3901 15.3694C38.9377 15.0736 38.5782 14.6588 38.3116 14.1248C38.0531 13.5826 37.9238 12.9582 37.9238 12.2517C37.9238 11.5452 38.0531 10.9249 38.3116 10.3909C38.5782 9.85693 38.9377 9.44613 39.3901 9.1586C39.8425 8.87106 40.3474 8.72729 40.9048 8.72729ZM42.9891 12.264C42.9891 11.7382 42.8437 11.3233 42.5528 11.0194C42.2701 10.7154 41.9227 10.5634 41.5107 10.5634C41.0987 10.5634 40.7473 10.7154 40.4565 11.0194C40.1737 11.3151 40.0323 11.7259 40.0323 12.2517C40.0323 12.7775 40.1737 13.1964 40.4565 13.5086C40.7473 13.8126 41.0987 13.9645 41.5107 13.9645C41.9227 13.9645 42.2701 13.8126 42.5528 13.5086C42.8437 13.2046 42.9891 12.7898 42.9891 12.264Z" fill="#3A3B7B"/>
<path d="M49.4307 15.8182C48.8098 15.8182 48.2494 15.6741 47.7496 15.3858C47.2574 15.0976 46.8673 14.6858 46.5796 14.1505C46.2994 13.6151 46.1593 12.9892 46.1593 12.2727C46.1593 11.5645 46.3032 10.9427 46.5909 10.4074C46.8787 9.86379 47.2725 9.44791 47.7723 9.15966C48.2721 8.87142 48.8325 8.72729 49.4534 8.72729C50.0744 8.72729 50.6348 8.87142 51.1346 9.15966C51.6344 9.44791 52.0282 9.86379 52.316 10.4074C52.6038 10.9427 52.7477 11.5645 52.7477 12.2727C52.7477 12.981 52.6 13.6069 52.3046 14.1505C52.0169 14.6858 51.6193 15.0976 51.1119 15.3858C50.6121 15.6741 50.0517 15.8182 49.4307 15.8182ZM49.4307 13.9899C49.8018 13.9899 50.1161 13.8416 50.3735 13.5451C50.6386 13.2487 50.7712 12.8246 50.7712 12.2727C50.7712 11.7209 50.6424 11.2968 50.3849 11.0003C50.135 10.7039 49.8246 10.5556 49.4534 10.5556C49.0749 10.5556 48.7606 10.7039 48.5107 11.0003C48.2607 11.2886 48.1358 11.7127 48.1358 12.2727C48.1358 12.8246 48.257 13.2487 48.4993 13.5451C48.7492 13.8416 49.0597 13.9899 49.4307 13.9899Z" fill="#3A3B7B"/>
<path d="M54.676 8.26763C54.2703 8.26763 53.9367 8.16139 53.6752 7.94893C53.4229 7.7283 53.2966 7.45864 53.2966 7.13994C53.2966 6.81308 53.4229 6.54341 53.6752 6.33095C53.9367 6.11032 54.2703 6 54.676 6C55.0726 6 55.3972 6.11032 55.6496 6.33095C55.911 6.54341 56.0418 6.81308 56.0418 7.13994C56.0418 7.45864 55.911 7.7283 55.6496 7.94893C55.3972 8.16139 55.0726 8.26763 54.676 8.26763ZM55.8254 8.97856V15.8182H53.513V8.97856H55.8254Z" fill="#3A3B7B"/>
<path d="M59.0524 9.81098C59.2392 9.48714 59.4963 9.22555 59.8243 9.02625C60.1522 8.82694 60.5365 8.72729 60.9765 8.72729C61.4913 8.72729 61.9573 8.87262 62.3746 9.16326C62.7924 9.45391 63.1204 9.86915 63.3591 10.4089C63.6053 10.9487 63.7282 11.5756 63.7282 12.2898C63.7282 13.004 63.6053 13.6351 63.3591 14.1831C63.1204 14.7229 62.7924 15.1423 62.3746 15.4412C61.9573 15.7319 61.4913 15.8772 60.9765 15.8772C60.5441 15.8772 60.1598 15.7775 59.8243 15.5783C59.4963 15.3789 59.2392 15.1215 59.0524 14.8059V19.0909H57.1398V8.82694H59.0524V9.81098ZM61.7819 12.2898C61.7819 11.7583 61.6477 11.3431 61.3792 11.0442C61.1183 10.7369 60.7936 10.5833 60.4061 10.5833C60.0256 10.5833 59.7014 10.7369 59.4329 11.0442C59.1721 11.3514 59.0416 11.7708 59.0416 12.3022C59.0416 12.8337 59.1721 13.2531 59.4329 13.5603C59.7014 13.8676 60.0256 14.0212 60.4061 14.0212C60.7866 14.0212 61.1108 13.8676 61.3792 13.5603C61.6477 13.2448 61.7819 12.8213 61.7819 12.2898Z" fill="#3A3B7B"/>
<path d="M67.4905 15.8182C66.8818 15.8182 66.3403 15.7153 65.8654 15.5093C65.3899 15.3035 65.0147 15.0234 64.7401 14.6693C64.4648 14.307 64.3105 13.9034 64.2772 13.4586H66.3906C66.4154 13.6975 66.5279 13.8911 66.7282 14.0393C66.9278 14.1875 67.1741 14.2617 67.4657 14.2617C67.7325 14.2617 67.9364 14.2122 68.0786 14.1134C68.2286 14.0064 68.3036 13.8704 68.3036 13.7058C68.3036 13.5081 68.199 13.364 67.9908 13.2733C67.7821 13.1745 67.4445 13.0675 66.978 12.9522C66.4777 12.8369 66.0608 12.7174 65.7275 12.5939C65.3941 12.4621 65.1067 12.2604 64.8647 11.9886C64.6233 11.7086 64.5023 11.3339 64.5023 10.8644C64.5023 10.4691 64.6106 10.1109 64.8272 9.78967C65.0523 9.46027 65.3778 9.20084 65.8025 9.01142C66.2363 8.822 66.7487 8.72729 67.3404 8.72729C68.2159 8.72729 68.9038 8.94142 69.4036 9.36968C69.9124 9.79792 70.204 10.3662 70.279 11.0745H68.3036C68.2698 10.8356 68.1615 10.6462 67.9781 10.5062C67.8033 10.3662 67.5698 10.2962 67.2781 10.2962C67.0283 10.2962 66.8365 10.3456 66.7028 10.4444C66.5696 10.535 66.5031 10.6627 66.5031 10.8274C66.5031 11.025 66.6072 11.1733 66.8153 11.2721C67.0319 11.371 67.3659 11.4698 67.816 11.5686C68.3327 11.7004 68.7538 11.8321 69.0787 11.9639C69.4036 12.0874 69.6873 12.2933 69.9287 12.5816C70.1792 12.8616 70.3081 13.2404 70.3165 13.7181C70.3165 14.1217 70.1998 14.484 69.9662 14.8052C69.7412 15.1182 69.412 15.3652 68.9788 15.5464C68.5535 15.7276 68.0574 15.8182 67.4905 15.8182Z" fill="#3A3B7B"/>
<path d="M77.4539 9.27271V15.7485H75.4275V14.8666C75.2222 15.1528 74.9418 15.3849 74.5863 15.5629C74.2388 15.7331 73.8518 15.8182 73.4252 15.8182C72.9195 15.8182 72.4728 15.7099 72.0857 15.4932C71.6987 15.2688 71.3988 14.9478 71.1855 14.53C70.9722 14.1122 70.8655 13.6209 70.8655 13.0561V9.27271H72.8799V12.7891C72.8799 13.2224 72.9946 13.559 73.2234 13.7988C73.4527 14.0387 73.7606 14.1586 74.1477 14.1586C74.5427 14.1586 74.8547 14.0387 75.084 13.7988C75.3134 13.559 75.4275 13.2224 75.4275 12.7891V9.27271H77.4539Z" fill="#3A3B7B"/>
<path d="M87.2939 9.27271C88.1453 9.27271 88.8208 9.51642 89.3199 10.0038C89.8279 10.4913 90.0816 11.1683 90.0816 12.0348V15.8182H87.9938V12.3017C87.9938 11.8839 87.8756 11.5629 87.6379 11.3385C87.4086 11.1064 87.0895 10.9903 86.6802 10.9903C86.2708 10.9903 85.9476 11.1064 85.71 11.3385C85.4812 11.5629 85.3666 11.8839 85.3666 12.3017V15.8182H83.2788V12.3017C83.2788 11.8839 83.1606 11.5629 82.9229 11.3385C82.6936 11.1064 82.3746 10.9903 81.9652 10.9903C81.5558 10.9903 81.2326 11.1064 80.995 11.3385C80.7663 11.5629 80.6516 11.8839 80.6516 12.3017V15.8182H78.5519V9.34234H80.6516V10.1547C80.8643 9.88393 81.1423 9.67116 81.4863 9.51642C81.8303 9.35395 82.2189 9.27271 82.6526 9.27271C83.1683 9.27271 83.627 9.37715 84.028 9.58605C84.4374 9.79495 84.7564 10.0928 84.9857 10.4797C85.2234 10.1238 85.5466 9.83364 85.9559 9.60927C86.3653 9.38489 86.8115 9.27271 87.2939 9.27271Z" fill="#3A3B7B"/>
</g>
<defs>
<clipPath id="clip0_10_567">
<rect width="90.0408" height="24" fill="white" transform="translate(0.0407715)"/>
</clipPath>
</defs>
</svg>
